<svg width="20" height="18" viewBox="0 0 20 18" fill="none" xmlns="http://www.w3.org/2000/svg">
<path d="M17 0C16.2043 0 15.4413 0.316071 14.8786 0.87868C14.316 1.44129 14 2.20435 14 3V5.84L4.99997 0.47C4.50259 0.173178 3.93418 0.0164607 3.35497 0.0164607C2.77576 0.0164607 2.20734 0.173178 1.70997 0.47C1.18905 0.766028 0.756187 1.1952 0.455712 1.71357C0.155237 2.23193 -0.00204808 2.82085 -3.31129e-05 3.42V14.58C-0.0100205 15.1886 0.144516 15.7886 0.447259 16.3166C0.750002 16.8447 1.18971 17.2811 1.71997 17.58C2.21092 17.8578 2.76589 18.0025 3.32997 18C3.91873 17.9961 4.49557 17.8337 4.99997 17.53L14 12.16V15C14 15.7956 14.316 16.5587 14.8786 17.1213C15.4413 17.6839 16.2043 18 17 18C17.7956 18 18.5587 17.6839 19.1213 17.1213C19.6839 16.5587 20 15.7956 20 15V3C20 2.20435 19.6839 1.44129 19.1213 0.87868C18.5587 0.316071 17.7956 0 17 0ZM13.32 10.23L3.99997 15.81C3.80716 15.9275 3.58574 15.9896 3.35997 15.9896C3.13419 15.9896 2.91277 15.9275 2.71997 15.81C2.50082 15.6882 2.31839 15.5098 2.19173 15.2935C2.06508 15.0771 1.99885 14.8307 1.99997 14.58V3.42C1.99425 3.16692 2.05725 2.91703 2.18228 2.69691C2.3073 2.4768 2.48967 2.2947 2.70997 2.17C2.89898 2.06192 3.11227 2.00344 3.32997 2C3.56694 1.99747 3.7996 2.06344 3.99997 2.19L13.33 7.77C13.5387 7.9003 13.7108 8.08157 13.8302 8.29675C13.9495 8.51193 14.0121 8.75394 14.0121 9C14.0121 9.24606 13.9495 9.48807 13.8302 9.70325C13.7108 9.91843 13.5387 10.0997 13.33 10.23H13.32ZM18 15C18 15.2652 17.8946 15.5196 17.7071 15.7071C17.5195 15.8946 17.2652 16 17 16C16.7348 16 16.4804 15.8946 16.2929 15.7071C16.1053 15.5196 16 15.2652 16 15V3C16 2.73478 16.1053 2.48043 16.2929 2.29289C16.4804 2.10536 16.7348 2 17 2C17.2652 2 17.5195 2.10536 17.7071 2.29289C17.8946 2.48043 18 2.73478 18 3V15Z" fill="black"/>
</svg>
