<svg width="16" height="16" viewBox="0 0 16 16" fill="none" xmlns="http://www.w3.org/2000/svg">
<g clip-path="url(#clip0_853_7963)">
<path d="M4.52 8.36775H5.184C5.83 8.36775 6.239 8.74575 6.244 9.26775C6.252 9.80475 5.817 10.1867 5.158 10.1867C4.56 10.1827 4.121 9.86175 4.09 9.43075H3C3.03 10.3447 3.791 11.1187 5.153 11.1187C6.393 11.1187 7.438 10.4587 7.425 9.32075C7.412 8.36775 6.678 7.94075 6.133 7.88875V7.82675C6.573 7.75675 7.258 7.29975 7.241 6.45175C7.228 5.54575 6.441 4.88175 5.188 4.88675C3.878 4.89175 3.145 5.62075 3.114 6.55675H4.217C4.239 6.16575 4.6 5.80575 5.153 5.80575C5.685 5.80575 6.081 6.13575 6.081 6.61875C6.085 7.09775 5.698 7.45375 5.153 7.45375H4.521L4.52 8.36775ZM8.126 5.00075V10.9997H10.315C12.125 10.9997 13 9.89275 13 7.98475C13 6.09075 12.139 5.00075 10.315 5.00075H8.126ZM9.313 5.96775H10.157C11.269 5.96775 11.778 6.65375 11.778 8.00775C11.778 9.36075 11.273 10.0277 10.157 10.0277H9.313V5.96775Z" fill="black"/>
<path d="M14 3C14.2652 3 14.5196 3.10536 14.7071 3.29289C14.8946 3.48043 15 3.73478 15 4V12C15 12.2652 14.8946 12.5196 14.7071 12.7071C14.5196 12.8946 14.2652 13 14 13H2C1.73478 13 1.48043 12.8946 1.29289 12.7071C1.10536 12.5196 1 12.2652 1 12V4C1 3.73478 1.10536 3.48043 1.29289 3.29289C1.48043 3.10536 1.73478 3 2 3H14ZM2 2C1.46957 2 0.960859 2.21071 0.585786 2.58579C0.210714 2.96086 0 3.46957 0 4L0 12C0 12.5304 0.210714 13.0391 0.585786 13.4142C0.960859 13.7893 1.46957 14 2 14H14C14.5304 14 15.0391 13.7893 15.4142 13.4142C15.7893 13.0391 16 12.5304 16 12V4C16 3.46957 15.7893 2.96086 15.4142 2.58579C15.0391 2.21071 14.5304 2 14 2H2Z" fill="black"/>
</g>
<defs>
<clipPath id="clip0_853_7963">
<rect width="16" height="16" fill="white"/>
</clipPath>
</defs>
</svg>
