<svg width="15" height="16" viewBox="0 0 15 16" fill="none" xmlns="http://www.w3.org/2000/svg">
  <path fill-rule="evenodd" clip-rule="evenodd" d="M8.94999 2.5H15V3.5H8.94999C8.71836 4.64112 7.70948 5.5 6.5 5.5C5.29052 5.5 4.28164 4.64112 4.05001 3.5H0V2.5H4.05001C4.28164 1.35888 5.29052 0.5 6.5 0.5C7.70948 0.5 8.71836 1.35888 8.94999 2.5ZM13.95 7.5H15V8.5H13.95C13.7184 9.64112 12.7095 10.5 11.5 10.5C10.2905 10.5 9.28164 9.64112 9.05001 8.5H0V7.5H9.05001C9.28164 6.35888 10.2905 5.5 11.5 5.5C12.7095 5.5 13.7184 6.35888 13.95 7.5ZM15 12.5H6.94999C6.71836 11.3589 5.70948 10.5 4.5 10.5C3.29052 10.5 2.28164 11.3589 2.05001 12.5H0V13.5H2.05001C2.28164 14.6411 3.29052 15.5 4.5 15.5C5.70948 15.5 6.71836 14.6411 6.94999 13.5H15V12.5Z" fill="black" fill-opacity="0.7"/>
</svg>
