<svg width="20" height="23" viewBox="0 0 20 23" fill="none" xmlns="http://www.w3.org/2000/svg">
<path fill-rule="evenodd" clip-rule="evenodd" d="M11.2833 13.7808C10.24 14.4769 9.00078 14.8789 7.67841 14.8789C4.02128 14.8789 1 11.8038 1 7.93946C1 4.07513 4.02128 1 7.67841 1C11.3355 1 14.3568 4.07513 14.3568 7.93946C14.3568 9.66337 13.7555 11.2302 12.7648 12.4371L12.7578 12.4287L11.2747 13.7706L11.2833 13.7808ZM11.9336 14.5493C10.7156 15.3893 9.25232 15.8789 7.67841 15.8789C3.43774 15.8789 0 12.3243 0 7.93946C0 3.55462 3.43774 0 7.67841 0C11.9191 0 15.3568 3.55462 15.3568 7.93946C15.3568 9.96269 14.6249 11.8092 13.4199 13.2112L19.9201 20.8925L18.437 22.2344L11.9336 14.5493Z" fill="black"/>
</svg>
