<svg width="20" height="18" viewBox="0 0 20 18" fill="none" xmlns="http://www.w3.org/2000/svg">
<path d="M17 3.5H15.72L15.4 2.5C15.1926 1.91323 14.8077 1.4055 14.2989 1.04716C13.7901 0.688818 13.1824 0.4976 12.56 0.499999H7.44C6.81155 0.501175 6.19933 0.699683 5.68977 1.0675C5.1802 1.43533 4.79901 1.95389 4.6 2.55L4.28 3.55H3C2.20435 3.55 1.44129 3.86607 0.87868 4.42868C0.316071 4.99129 0 5.75435 0 6.55V14.55C0 15.3456 0.316071 16.1087 0.87868 16.6713C1.44129 17.2339 2.20435 17.55 3 17.55H17C17.7956 17.55 18.5587 17.2339 19.1213 16.6713C19.6839 16.1087 20 15.3456 20 14.55V6.55C20.0066 6.15185 19.9339 5.75636 19.7862 5.38659C19.6384 5.01682 19.4184 4.68018 19.1392 4.39628C18.86 4.11239 18.527 3.88693 18.1597 3.73305C17.7924 3.57917 17.3982 3.49994 17 3.5ZM18 14.5C18 14.7652 17.8946 15.0196 17.7071 15.2071C17.5196 15.3946 17.2652 15.5 17 15.5H3C2.73478 15.5 2.48043 15.3946 2.29289 15.2071C2.10536 15.0196 2 14.7652 2 14.5V6.5C2 6.23478 2.10536 5.98043 2.29289 5.79289C2.48043 5.60536 2.73478 5.5 3 5.5H5C5.21807 5.51138 5.43386 5.45107 5.61443 5.32829C5.795 5.2055 5.93042 5.02698 6 4.82L6.54 3.18C6.60709 2.98138 6.7349 2.80886 6.90537 2.68684C7.07584 2.56482 7.28036 2.49946 7.49 2.5H12.61C12.8196 2.49946 13.0242 2.56482 13.1946 2.68684C13.3651 2.80886 13.4929 2.98138 13.56 3.18L14.1 4.82C14.1642 5.01074 14.2844 5.17769 14.445 5.29901C14.6055 5.42033 14.799 5.49038 15 5.5H17C17.2652 5.5 17.5196 5.60536 17.7071 5.79289C17.8946 5.98043 18 6.23478 18 6.5V14.5ZM10 5.5C9.20887 5.5 8.43552 5.7346 7.77772 6.17412C7.11992 6.61365 6.60723 7.23836 6.30448 7.96927C6.00173 8.70017 5.92252 9.50444 6.07686 10.2804C6.2312 11.0563 6.61216 11.769 7.17157 12.3284C7.73098 12.8878 8.44372 13.2688 9.21964 13.4231C9.99556 13.5775 10.7998 13.4983 11.5307 13.1955C12.2616 12.8928 12.8864 12.3801 13.3259 11.7223C13.7654 11.0645 14 10.2911 14 9.5C14 8.43913 13.5786 7.42172 12.8284 6.67157C12.0783 5.92143 11.0609 5.5 10 5.5ZM10 11.5C9.60444 11.5 9.21776 11.3827 8.88886 11.1629C8.55996 10.9432 8.30362 10.6308 8.15224 10.2654C8.00087 9.89991 7.96126 9.49778 8.03843 9.10982C8.1156 8.72186 8.30608 8.36549 8.58579 8.08579C8.86549 7.80608 9.22186 7.6156 9.60982 7.53843C9.99778 7.46126 10.3999 7.50086 10.7654 7.65224C11.1308 7.80362 11.4432 8.05996 11.6629 8.38886C11.8827 8.71776 12 9.10444 12 9.5C12 10.0304 11.7893 10.5391 11.4142 10.9142C11.0391 11.2893 10.5304 11.5 10 11.5Z" fill="black"/>
</svg>
