<svg width="22" height="22" viewBox="0 0 22 22" fill="none" xmlns="http://www.w3.org/2000/svg">
<path d="M15 5.99998H7C6.73478 5.99998 6.48043 6.10534 6.29289 6.29288C6.10535 6.48041 6 6.73477 6 6.99998V15C6 15.2652 6.10535 15.5196 6.29289 15.7071C6.48043 15.8946 6.73478 16 7 16H15C15.2652 16 15.5196 15.8946 15.7071 15.7071C15.8946 15.5196 16 15.2652 16 15V6.99998C16 6.73477 15.8946 6.48041 15.7071 6.29288C15.5196 6.10534 15.2652 5.99998 15 5.99998ZM14 14H8V7.99998H14V14ZM20 17.28V4.71998C20.2705 4.56955 20.5023 4.3584 20.6773 4.10317C20.8523 3.84793 20.9657 3.55556 21.0086 3.24906C21.0514 2.94257 21.0225 2.63031 20.9242 2.33686C20.8259 2.04342 20.6609 1.77679 20.442 1.55795C20.2232 1.33912 19.9566 1.17406 19.6631 1.07575C19.3697 0.977448 19.0574 0.948583 18.7509 0.991428C18.4444 1.03427 18.1521 1.14766 17.8968 1.32267C17.6416 1.49768 17.4304 1.72953 17.28 1.99998H4.72C4.56956 1.72953 4.35842 1.49768 4.10318 1.32267C3.84794 1.14766 3.55557 1.03427 3.24908 0.991428C2.94258 0.948583 2.63032 0.977448 2.33688 1.07575C2.04343 1.17406 1.7768 1.33912 1.55797 1.55795C1.33914 1.77679 1.17407 2.04342 1.07577 2.33686C0.977464 2.63031 0.948598 2.94257 0.991444 3.24906C1.03429 3.55556 1.14768 3.84793 1.32269 4.10317C1.49769 4.3584 1.72955 4.56955 2 4.71998V17.28C1.72955 17.4304 1.49769 17.6416 1.32269 17.8968C1.14768 18.152 1.03429 18.4444 0.991444 18.7509C0.948598 19.0574 0.977464 19.3697 1.07577 19.6631C1.17407 19.9566 1.33914 20.2232 1.55797 20.442C1.7768 20.6608 2.04343 20.8259 2.33688 20.9242C2.63032 21.0225 2.94258 21.0514 3.24908 21.0085C3.55557 20.9657 3.84794 20.8523 4.10318 20.6773C4.35842 20.5023 4.56956 20.2704 4.72 20H17.28C17.4304 20.2704 17.6416 20.5023 17.8968 20.6773C18.1521 20.8523 18.4444 20.9657 18.7509 21.0085C19.0574 21.0514 19.3697 21.0225 19.6631 20.9242C19.9566 20.8259 20.2232 20.6608 20.442 20.442C20.6609 20.2232 20.8259 19.9566 20.9242 19.6631C21.0225 19.3697 21.0514 19.0574 21.0086 18.7509C20.9657 18.4444 20.8523 18.152 20.6773 17.8968C20.5023 17.6416 20.2705 17.4304 20 17.28ZM18 17.28C17.6993 17.4504 17.4504 17.6993 17.28 18H4.72C4.54957 17.6993 4.30073 17.4504 4 17.28V4.71998C4.30073 4.54956 4.54957 4.30071 4.72 3.99998H17.28C17.4504 4.30071 17.6993 4.54956 18 4.71998V17.28Z" fill="black"/>
</svg>
