<svg width="35" height="40" viewBox="0 0 35 40" fill="none" xmlns="http://www.w3.org/2000/svg">
<path d="M0 0V31.3727C0 34.9239 2.28784 37.4252 6.70298 37.4252H10.8171C13.9679 37.4252 16.0082 38.522 17.5067 40C18.9985 38.522 21.0254 37.4252 24.1963 37.4252H28.3104C32.7255 37.4252 35 34.9239 35 31.3727V0H0ZM33.1671 21.06H15.9146V1.82578H33.1604V21.06H33.1671ZM1.83295 1.82578H14.3826V21.4145L2.32798 33.5395C2.00688 32.9376 1.82626 32.222 1.82626 31.3727V1.82578H1.83295ZM28.3104 35.5994H24.1963C21.574 35.5994 19.3664 36.2548 17.5067 37.6058C15.647 36.2548 13.4461 35.5994 10.8171 35.5994H6.70298C5.37175 35.5994 4.26797 35.3185 3.45852 34.7969L15.5868 22.5915H33.1671V31.3727C33.1671 33.2988 32.3242 35.5994 28.3104 35.5994Z" fill="#201E33"/>
<path d="M10.019 16.518V12.0305L8.54726 14.9531H7.53044L6.05204 12.0305V16.518H4.54688V8.82031H6.03197L8.03885 12.9868L10.0457 8.82031H11.5241V16.518H10.019Z" fill="#201E33"/>
<path d="M23.5657 27.2945L22.589 30.0967H24.5022L23.5657 27.2945ZM25.3652 32.725L24.9103 31.3607H22.1743L21.706 32.725H20.1406L22.9436 25.0273H24.1209L26.9373 32.725H25.3652Z" fill="#201E33"/>
<path d="M24.8394 16.472L22.1368 12.4392L24.6254 8.77427H26.4182L23.8293 12.3857L26.6724 16.472H24.8394ZM20.625 8.76758H22.1302V16.4653H20.625V8.76758Z" fill="#201E33"/>
</svg>
